<?xml version="1.0" standalone="no"?>
<!DOCTYPE svg PUBLIC "-//W3C//DTD SVG 1.1//EN" "http://www.w3.org/Graphics/SVG/1.1/DTD/svg11.dtd">
<svg width="100%" height="100%" viewBox="0 0 500 500" version="1.1" xmlns="http://www.w3.org/2000/svg" xmlns:xlink="http://www.w3.org/1999/xlink" xml:space="preserve" style="fill-rule:evenodd;clip-rule:evenodd;stroke-linecap:round;stroke-linejoin:round;stroke-miterlimit:1.41421;">
    <g id="Layer1" transform="matrix(1.45785,0,0,1.45785,-522.314,-105.717)">
        <g transform="matrix(-2.12166e-14,-1.46965,1.4697,-1.97057e-14,-51.1066,634.137)">
            <path d="M221.558,419.332L221.558,419.112L221.559,418.893L221.561,418.673L221.563,418.454L221.567,418.234L221.57,418.015L221.575,417.796L221.58,417.578L221.586,417.359L221.593,417.141L221.594,417.095L221.957,417.174L222.269,417.39L222.474,417.709L222.542,418.082L222.539,418.25L222.536,418.466L222.533,418.682L222.532,418.899L222.531,419.042L222.455,419.414L222.243,419.728L221.926,419.938L221.561,420.008L221.561,419.991L221.559,419.772L221.558,419.552L221.558,419.332ZM221.651,422.926L222.022,422.975L222.35,423.165L222.581,423.466L222.679,423.833L222.68,423.85L222.695,424.063L222.71,424.276L222.726,424.489L222.743,424.702L222.749,424.787L222.706,425.164L222.521,425.495L222.224,425.731L221.865,425.833L221.847,425.64L221.828,425.425L221.809,425.21L221.791,424.994L221.773,424.779L221.756,424.563L221.74,424.347L221.725,424.131L221.71,423.915L221.696,423.698L221.683,423.482L221.67,423.265L221.658,423.048L221.651,422.926ZM221.751,414.179L221.756,414.101L221.773,413.886L221.791,413.67L221.809,413.455L221.828,413.24L221.847,413.025L221.867,412.81L221.888,412.595L221.909,412.381L221.932,412.167L221.954,411.953L221.978,411.739L222.002,411.525L222.027,411.312L222.031,411.279L222.386,411.388L222.678,411.63L222.855,411.966L222.891,412.344L222.877,412.479L222.856,412.691L222.835,412.902L222.815,413.114L222.799,413.299L222.691,413.663L222.453,413.958L222.12,414.14L221.751,414.179ZM222.203,428.733L222.574,428.749L222.918,428.909L223.174,429.189L223.304,429.545L223.336,429.747L223.368,429.955L223.402,430.162L223.436,430.37L223.457,430.493L223.445,430.872L223.289,431.218L223.013,431.478L222.665,431.61L222.659,431.577L222.621,431.368L222.584,431.158L222.548,430.949L222.512,430.739L222.477,430.529L222.442,430.318L222.408,430.108L222.375,429.897L222.342,429.686L222.31,429.475L222.279,429.264L222.248,429.052L222.218,428.84L222.203,428.733ZM222.435,408.387L222.442,408.346L222.477,408.136L222.512,407.926L222.548,407.716L222.584,407.506L222.621,407.297L222.659,407.088L222.697,406.879L222.736,406.67L222.776,406.461L222.816,406.253L222.857,406.045L222.899,405.837L222.941,405.63L222.963,405.522L223.307,405.661L223.578,405.927L223.726,406.276L223.729,406.655L223.692,406.85L223.653,407.056L223.616,407.262L223.578,407.468L223.555,407.6L223.417,407.953L223.155,408.227L222.807,408.38L222.435,408.387ZM223.251,434.47L223.623,434.454L223.98,434.585L224.259,434.842L224.419,435.186L224.441,435.277L224.49,435.479L224.541,435.68L224.591,435.881L224.643,436.082L224.651,436.114L224.673,436.493L224.548,436.851L224.295,437.135L223.959,437.297L223.916,437.138L223.861,436.935L223.807,436.732L223.754,436.528L223.701,436.325L223.649,436.121L223.597,435.917L223.547,435.713L223.496,435.508L223.447,435.303L223.397,435.098L223.349,434.893L223.301,434.687L223.254,434.482L223.251,434.47ZM223.615,402.676L223.649,402.543L223.701,402.34L223.754,402.136L223.807,401.933L223.861,401.73L223.916,401.527L223.971,401.324L224.027,401.122L224.083,400.92L224.14,400.718L224.198,400.516L224.256,400.315L224.315,400.114L224.375,399.913L224.389,399.866L224.72,400.035L224.966,400.324L225.083,400.685L225.053,401.063L225.019,401.183L224.964,401.382L224.909,401.581L224.854,401.781L224.801,401.981L224.799,401.986L224.632,402.326L224.347,402.577L223.988,402.7L223.615,402.676ZM224.79,440.096L225.159,440.048L225.525,440.147L225.826,440.379L226.015,440.708L226.056,440.829L226.122,441.023L226.189,441.218L226.256,441.412L226.324,441.605L226.327,441.613L226.381,441.988L226.288,442.356L226.061,442.66L225.74,442.851L225.689,442.712L225.617,442.517L225.547,442.321L225.476,442.125L225.407,441.929L225.338,441.732L225.27,441.535L225.202,441.338L225.135,441.141L225.068,440.943L225.002,440.745L224.937,440.547L224.872,440.349L224.808,440.15L224.79,440.096ZM225.284,397.088L225.338,396.932L225.407,396.736L225.476,396.539L225.547,396.343L225.617,396.148L225.689,395.952L225.76,395.757L225.833,395.562L225.906,395.368L225.98,395.173L226.054,394.979L226.128,394.785L226.204,394.592L226.28,394.399L226.297,394.355L226.613,394.552L226.833,394.861L226.918,395.231L226.856,395.605L226.816,395.71L226.744,395.902L226.672,396.094L226.602,396.287L226.531,396.479L226.523,396.502L226.327,396.827L226.022,397.052L225.653,397.143L225.284,397.088ZM226.809,445.567L227.173,445.488L227.546,445.555L227.865,445.76L228.082,446.072L228.126,446.171L228.208,446.358L228.29,446.544L228.373,446.73L228.457,446.916L228.471,446.947L228.557,447.316L228.496,447.69L228.296,448.013L227.993,448.23L227.916,448.068L227.829,447.881L227.743,447.693L227.657,447.505L227.571,447.317L227.486,447.129L227.402,446.94L227.318,446.751L227.235,446.561L227.152,446.372L227.07,446.182L226.988,445.991L226.907,445.801L226.827,445.61L226.809,445.567ZM227.429,391.664L227.486,391.536L227.571,391.347L227.657,391.159L227.743,390.971L227.829,390.784L227.916,390.596L228.004,390.41L228.092,390.223L228.181,390.037L228.27,389.851L228.36,389.665L228.451,389.479L228.542,389.294L228.633,389.11L228.673,389.029L228.971,389.252L229.164,389.579L229.217,389.954L229.123,390.322L229.058,390.456L228.971,390.64L228.884,390.824L228.797,391.008L228.713,391.19L228.488,391.496L228.164,391.693L227.789,391.751L227.429,391.664ZM229.292,450.844L229.648,450.734L230.026,450.769L230.362,450.946L230.604,451.238L230.628,451.283L230.725,451.46L230.823,451.638L230.921,451.815L231.019,451.992L231.067,452.077L231.184,452.437L231.155,452.816L230.983,453.154L230.7,453.396L230.679,453.36L230.576,453.182L230.474,453.004L230.372,452.825L230.271,452.646L230.171,452.467L230.071,452.288L229.971,452.108L229.872,451.927L229.773,451.747L229.676,451.566L229.578,451.385L229.481,451.203L229.385,451.021L229.292,450.844ZM230.033,386.445L230.071,386.377L230.171,386.197L230.271,386.018L230.372,385.839L230.474,385.661L230.576,385.482L230.679,385.304L230.782,385.127L230.886,384.95L230.99,384.773L231.095,384.596L231.2,384.42L231.306,384.244L231.412,384.069L231.499,383.926L231.777,384.176L231.941,384.518L231.961,384.897L231.835,385.255L231.827,385.268L231.724,385.442L231.622,385.617L231.52,385.792L231.419,385.967L231.353,386.083L231.104,386.369L230.764,386.537L230.385,386.563L230.033,386.445ZM232.219,455.889L232.563,455.749L232.942,455.751L233.292,455.898L233.559,456.168L233.651,456.308L233.763,456.476L233.875,456.644L233.988,456.811L234.093,456.966L234.241,457.316L234.243,457.695L234.1,458.047L233.84,458.311L233.762,458.199L233.645,458.031L233.529,457.863L233.413,457.694L233.297,457.525L233.183,457.356L233.068,457.186L232.954,457.016L232.841,456.845L232.728,456.674L232.615,456.503L232.504,456.331L232.392,456.159L232.281,455.987L232.219,455.889ZM233.074,381.469L233.183,381.309L233.297,381.139L233.413,380.97L233.529,380.801L233.645,380.633L233.762,380.465L233.879,380.297L233.997,380.13L234.116,379.963L234.234,379.796L234.354,379.63L234.474,379.465L234.594,379.299L234.715,379.134L234.751,379.085L235.006,379.356L235.14,379.711L235.128,380.09L234.973,380.436L234.908,380.527L234.791,380.691L234.675,380.856L234.559,381.021L234.444,381.187L234.422,381.22L234.149,381.484L233.796,381.623L233.417,381.617L233.074,381.469ZM235.566,460.665L235.899,460.496L236.277,460.466L236.638,460.583L236.926,460.83L236.964,460.878L237.089,461.036L237.215,461.193L237.341,461.35L237.468,461.507L237.525,461.577L237.702,461.913L237.738,462.29L237.626,462.653L237.388,462.94L237.361,462.908L237.23,462.751L237.1,462.593L236.97,462.436L236.841,462.278L236.712,462.119L236.584,461.96L236.456,461.801L236.328,461.641L236.201,461.481L236.075,461.321L235.949,461.16L235.823,460.999L235.698,460.837L235.574,460.675L235.566,460.665ZM236.531,376.771L236.584,376.704L236.712,376.545L236.841,376.387L236.97,376.229L237.1,376.071L237.23,375.914L237.361,375.757L237.492,375.6L237.624,375.444L237.756,375.288L237.889,375.133L238.022,374.978L238.155,374.824L238.289,374.67L238.404,374.538L238.635,374.831L238.738,375.196L238.694,375.573L238.509,375.904L238.497,375.918L238.366,376.072L238.237,376.226L238.107,376.38L237.978,376.535L237.893,376.638L237.599,376.878L237.235,376.986L236.858,376.947L236.531,376.771ZM239.309,465.139L239.624,464.942L239.998,464.88L240.368,464.965L240.677,465.186L240.778,465.294L240.917,465.44L241.055,465.586L241.194,465.732L241.334,465.877L241.337,465.88L241.542,466.199L241.61,466.572L241.53,466.943L241.318,467.25L241.204,467.136L241.061,466.99L240.918,466.845L240.776,466.698L240.634,466.552L240.493,466.405L240.351,466.257L240.211,466.109L240.071,465.961L239.931,465.812L239.792,465.663L239.653,465.513L239.514,465.363L239.376,465.213L239.309,465.139ZM240.374,372.384L240.493,372.26L240.634,372.113L240.776,371.966L240.918,371.82L241.061,371.674L241.204,371.529L241.348,371.384L241.492,371.239L241.637,371.095L241.781,370.951L241.927,370.808L242.073,370.665L242.219,370.523L242.366,370.381L242.43,370.319L242.635,370.629L242.708,371.001L242.632,371.373L242.42,371.688L242.322,371.785L242.18,371.927L242.038,372.069L241.896,372.212L241.755,372.355L241.744,372.366L241.431,372.58L241.059,372.658L240.686,372.588L240.374,372.384ZM243.418,469.277L243.717,469.054L244.085,468.961L244.46,469.015L244.786,469.209L244.808,469.229L244.958,469.363L245.108,469.497L245.259,469.63L245.41,469.763L245.503,469.845L245.735,470.145L245.833,470.511L245.785,470.888L245.599,471.21L245.541,471.161L245.386,471.029L245.231,470.896L245.077,470.762L244.922,470.628L244.769,470.494L244.615,470.359L244.463,470.224L244.31,470.088L244.158,469.952L244.006,469.815L243.855,469.678L243.704,469.541L243.554,469.403L243.418,469.277ZM244.576,368.34L244.615,368.305L244.769,368.17L244.922,368.036L245.077,367.902L245.231,367.769L245.386,367.636L245.541,367.503L245.697,367.371L245.853,367.239L246.01,367.108L246.167,366.977L246.324,366.847L246.482,366.717L246.64,366.588L246.798,366.459L246.801,366.457L246.979,366.785L247.019,367.162L246.912,367.526L246.673,367.821L246.633,367.854L246.479,367.984L246.325,368.113L246.171,368.244L246.018,368.374L245.942,368.44L245.612,368.626L245.235,368.672L244.87,368.569L244.576,368.34ZM247.865,473.052L248.142,472.804L248.501,472.68L248.879,472.701L249.221,472.867L249.315,472.938L249.477,473.059L249.638,473.179L249.8,473.299L249.962,473.419L249.989,473.439L250.246,473.718L250.376,474.074L250.36,474.453L250.202,474.792L250.049,474.683L249.883,474.564L249.717,474.444L249.552,474.323L249.387,474.203L249.222,474.081L249.058,473.96L248.894,473.837L248.731,473.715L248.567,473.591L248.405,473.468L248.242,473.344L248.08,473.219L247.919,473.094L247.865,473.052ZM249.108,364.668L249.222,364.583L249.387,364.462L249.552,364.341L249.717,364.221L249.883,364.101L250.049,363.981L250.216,363.863L250.383,363.744L250.55,363.626L250.718,363.509L250.886,363.392L251.054,363.276L251.223,363.16L251.392,363.044L251.485,362.982L251.634,363.322L251.642,363.701L251.505,364.055L251.243,364.329L251.109,364.422L250.944,364.538L250.78,364.655L250.615,364.772L250.459,364.884L250.114,365.041L249.734,365.054L249.379,364.921L249.108,364.668ZM252.616,476.433L252.873,476.162L253.22,476.008L253.599,475.998L253.953,476.134L253.967,476.143L254.138,476.25L254.31,476.357L254.482,476.463L254.654,476.569L254.768,476.638L255.047,476.895L255.206,477.239L255.222,477.618L255.094,477.967L255.026,477.927L254.849,477.822L254.673,477.717L254.497,477.611L254.322,477.505L254.147,477.398L253.972,477.291L253.797,477.183L253.623,477.075L253.449,476.966L253.276,476.856L253.103,476.746L252.93,476.636L252.758,476.525L252.616,476.433ZM253.936,361.396L253.972,361.374L254.147,361.266L254.322,361.159L254.497,361.053L254.673,360.947L254.849,360.842L255.026,360.737L255.203,360.633L255.38,360.529L255.557,360.426L255.735,360.323L255.913,360.221L256.092,360.119L256.271,360.018L256.448,359.919L256.568,360.272L256.543,360.651L256.376,360.991L256.09,361.241L256.045,361.267L255.87,361.369L255.695,361.471L255.521,361.574L255.347,361.677L255.265,361.726L254.907,361.854L254.528,361.835L254.186,361.672L253.936,361.396ZM257.64,479.397L257.871,479.106L258.203,478.922L258.58,478.878L258.945,478.983L259.07,479.047L259.251,479.14L259.432,479.231L259.614,479.323L259.795,479.413L259.799,479.415L260.1,479.647L260.289,479.976L260.338,480.352L260.24,480.713L260.103,480.647L259.918,480.557L259.732,480.467L259.547,480.376L259.363,480.284L259.178,480.192L258.994,480.099L258.81,480.006L258.627,479.913L258.444,479.818L258.261,479.724L258.078,479.628L257.896,479.532L257.714,479.436L257.64,479.397ZM259.026,358.549L259.178,358.472L259.363,358.38L259.547,358.289L259.732,358.198L259.918,358.107L260.103,358.017L260.289,357.928L260.476,357.839L260.662,357.751L260.849,357.663L261.037,357.576L261.224,357.49L261.412,357.404L261.6,357.318L261.656,357.293L261.745,357.654L261.688,358.029L261.492,358.354L261.187,358.579L261.077,358.631L260.893,358.718L260.709,358.805L260.526,358.893L260.343,358.982L260.323,358.992L259.956,359.088L259.58,359.037L259.252,358.846L259.026,358.549ZM262.899,481.918L263.105,481.607L263.42,481.396L263.792,481.32L264.164,481.393L264.25,481.428L264.439,481.505L264.629,481.582L264.818,481.658L265.009,481.733L265.053,481.751L265.372,481.956L265.589,482.267L265.669,482.638L265.603,483.005L265.426,482.938L265.232,482.864L265.038,482.789L264.845,482.714L264.652,482.638L264.459,482.561L264.266,482.484L264.074,482.406L263.882,482.328L263.69,482.25L263.498,482.17L263.307,482.09L263.116,482.01L262.926,481.929L262.899,481.918ZM264.343,356.15L264.459,356.103L264.652,356.027L264.845,355.951L265.038,355.876L265.232,355.801L265.426,355.727L265.62,355.653L265.815,355.58L266.01,355.508L266.205,355.436L266.401,355.364L266.596,355.294L266.792,355.224L266.989,355.154L267.07,355.125L267.128,355.492L267.04,355.861L266.816,356.168L266.493,356.366L266.347,356.419L266.155,356.491L265.963,356.563L265.772,356.635L265.594,356.704L265.22,356.767L264.85,356.683L264.54,356.464L264.343,356.15ZM268.356,483.976L268.535,483.649L268.83,483.411L269.194,483.304L269.572,483.345L269.654,483.37L269.851,483.431L270.048,483.492L270.246,483.552L270.443,483.611L270.487,483.624L270.823,483.8L271.066,484.092L271.178,484.454L271.144,484.826L270.971,484.777L270.769,484.719L270.568,484.661L270.367,484.602L270.166,484.543L269.965,484.483L269.765,484.422L269.565,484.361L269.365,484.299L269.166,484.236L268.966,484.173L268.767,484.11L268.569,484.045L268.37,483.981L268.356,483.976ZM269.846,354.218L269.965,354.182L270.166,354.122L270.367,354.062L270.568,354.003L270.769,353.945L270.971,353.887L271.173,353.83L271.375,353.774L271.577,353.718L271.78,353.663L271.982,353.608L272.186,353.554L272.389,353.501L272.592,353.448L272.652,353.433L272.678,353.804L272.558,354.164L272.309,354.45L271.969,354.619L271.834,354.656L271.635,354.711L271.436,354.767L271.237,354.823L271.044,354.878L270.666,354.909L270.305,354.793L270.015,354.548L269.846,354.218ZM273.971,485.556L274.12,485.215L274.394,484.952L274.747,484.814L275.126,484.822L275.261,484.851L275.465,484.895L275.669,484.939L275.873,484.982L276.065,485.021L276.415,485.169L276.681,485.439L276.824,485.791L276.821,486.162L276.714,486.141L276.506,486.101L276.298,486.06L276.09,486.018L275.882,485.976L275.675,485.933L275.468,485.89L275.261,485.846L275.054,485.801L274.848,485.756L274.642,485.71L274.436,485.663L274.23,485.616L274.024,485.568L273.971,485.556ZM275.495,352.769L275.675,352.731L275.882,352.688L276.09,352.646L276.298,352.604L276.506,352.563L276.714,352.523L276.923,352.483L277.132,352.444L277.341,352.406L277.55,352.368L277.759,352.331L277.969,352.295L278.179,352.259L278.359,352.229L278.352,352.602L278.201,352.949L277.928,353.213L277.575,353.352L277.515,353.363L277.309,353.4L277.103,353.439L276.897,353.478L276.692,353.518L276.634,353.529L276.255,353.528L275.905,353.382L275.637,353.114L275.495,352.769ZM279.701,486.645L279.821,486.292L280.071,486.007L280.411,485.839L280.79,485.814L280.839,485.821L281.049,485.848L281.258,485.874L281.468,485.9L281.679,485.925L281.74,485.932L282.101,486.048L282.39,486.294L282.563,486.632L282.593,487.004L282.42,486.986L282.206,486.963L281.992,486.94L281.778,486.915L281.565,486.891L281.352,486.865L281.139,486.839L280.926,486.812L280.713,486.785L280.501,486.757L280.289,486.728L280.077,486.699L279.865,486.669L279.701,486.645ZM281.249,351.812L281.352,351.799L281.565,351.774L281.778,351.749L281.992,351.725L282.206,351.701L282.42,351.679L282.634,351.656L282.848,351.635L283.063,351.614L283.278,351.594L283.493,351.575L283.708,351.556L283.923,351.538L284.139,351.52L284.148,351.52L284.11,351.89L283.929,352.224L283.635,352.463L283.271,352.571L283.155,352.582L282.944,352.603L282.732,352.624L282.521,352.646L282.316,352.667L281.938,352.633L281.602,352.457L281.359,352.166L281.249,351.812ZM285.503,487.239L285.592,486.876L285.817,486.571L286.142,486.375L286.517,486.318L286.565,486.32L286.779,486.329L286.994,486.338L287.209,486.346L287.424,486.353L287.474,486.354L287.843,486.439L288.152,486.66L288.353,486.981L288.415,487.349L288.268,487.347L288.049,487.342L287.83,487.337L287.612,487.331L287.393,487.325L287.175,487.317L286.957,487.309L286.739,487.301L286.522,487.291L286.304,487.281L286.087,487.271L285.869,487.259L285.652,487.247L285.503,487.239ZM287.062,351.351L287.175,351.347L287.393,351.34L287.612,351.333L287.83,351.327L288.049,351.322L288.268,351.318L288.487,351.314L288.706,351.311L288.926,351.308L289.145,351.306L289.365,351.305L289.585,351.305L289.805,351.305L290.025,351.306L290.244,351.308L290.464,351.311L290.683,351.314L290.902,351.318L291.121,351.322L291.34,351.327L291.528,351.332L291.45,351.697L291.235,352.009L290.917,352.215L290.544,352.284L290.451,352.283L290.235,352.28L290.019,352.279L289.802,352.278L289.584,352.277L289.3,352.22L289.013,352.28L288.935,352.28L288.719,352.283L288.503,352.286L288.287,352.29L288.071,352.294L288.056,352.294L287.683,352.229L287.362,352.026L287.144,351.716L287.062,351.351ZM291.335,487.337L291.393,486.97L291.591,486.646L291.898,486.423L292.267,486.334L292.391,486.329L292.606,486.32L292.82,486.31L293.034,486.3L293.226,486.29L293.601,486.344L293.927,486.538L294.154,486.842L294.245,487.202L294.168,487.207L293.951,487.221L293.735,487.235L293.518,487.247L293.301,487.259L293.084,487.271L292.866,487.281L292.649,487.291L292.431,487.301L292.213,487.309L291.995,487.317L291.777,487.325L291.558,487.331L291.34,487.337L291.335,487.337ZM294.444,351.476L294.6,351.487L294.816,351.504L295.032,351.52L295.247,351.538L295.462,351.556L295.678,351.575L295.893,351.594L296.107,351.614L296.322,351.635L296.536,351.656L296.751,351.679L296.965,351.701L297.178,351.725L297.346,351.744L297.237,352.101L296.996,352.393L296.661,352.572L296.284,352.608L296.227,352.603L296.015,352.582L295.803,352.562L295.592,352.543L295.379,352.525L295.331,352.521L294.966,352.416L294.67,352.179L294.486,351.847L294.444,351.476ZM297.154,486.942L297.18,486.571L297.35,486.232L297.637,485.983L297.997,485.864L298.121,485.848L298.331,485.821L298.54,485.793L298.75,485.765L298.948,485.737L299.327,485.76L299.669,485.925L299.921,486.209L300.042,486.559L299.939,486.575L299.728,486.607L299.517,486.638L299.305,486.669L299.093,486.699L298.881,486.728L298.669,486.757L298.457,486.785L298.244,486.812L298.031,486.839L297.818,486.865L297.605,486.891L297.392,486.915L297.178,486.94L297.154,486.942ZM300.239,352.136L300.361,352.155L300.571,352.189L300.782,352.224L300.992,352.259L301.201,352.295L301.411,352.331L301.62,352.368L301.83,352.406L302.039,352.444L302.247,352.483L302.456,352.523L302.664,352.563L302.872,352.604L303.08,352.646L303.107,352.651L302.969,352.997L302.704,353.268L302.355,353.417L301.976,353.422L301.861,353.4L301.655,353.363L301.449,353.325L301.243,353.289L301.036,353.253L301.034,353.252L300.679,353.117L300.404,352.856L300.249,352.51L300.239,352.136ZM302.912,485.678L303.053,485.325L303.317,485.053L303.666,484.904L303.705,484.895L303.909,484.851L304.112,484.806L304.316,484.761L304.519,484.715L304.6,484.697L304.98,484.685L305.334,484.82L305.61,485.081L305.763,485.421L305.761,485.421L305.556,485.471L305.351,485.52L305.146,485.568L304.94,485.616L304.735,485.663L304.529,485.71L304.322,485.756L304.116,485.801L303.909,485.846L303.702,485.89L303.495,485.933L303.288,485.976L303.08,486.018L302.917,486.051L302.912,485.678ZM305.934,353.663L305.956,353.291L305.966,353.294L306.17,353.345L306.374,353.396L306.578,353.448L306.781,353.501L306.985,353.554L307.188,353.608L307.391,353.663L307.593,353.718L307.796,353.774L307.998,353.83L308.199,353.887L308.401,353.945L308.602,354.003L308.769,354.052L308.601,354.385L308.313,354.632L307.952,354.751L307.574,354.722L307.535,354.711L307.336,354.656L307.136,354.601L306.936,354.548L306.736,354.494L306.65,354.472L306.309,354.306L306.057,354.022L305.934,353.663ZM308.546,484.296L308.655,483.933L308.895,483.639L309.229,483.459L309.319,483.431L309.516,483.37L309.713,483.309L309.909,483.247L310.105,483.184L310.142,483.172L310.519,483.128L310.884,483.232L311.182,483.467L311.364,483.793L311.196,483.849L310.998,483.915L310.8,483.981L310.601,484.045L310.403,484.11L310.204,484.173L310.004,484.236L309.805,484.299L309.605,484.361L309.405,484.422L309.205,484.483L309.004,484.543L308.803,484.602L308.602,484.661L308.583,484.667L308.546,484.296ZM311.497,355.304L311.552,354.936L311.591,354.949L311.788,355.017L311.985,355.085L312.182,355.154L312.378,355.224L312.574,355.294L312.77,355.364L312.965,355.436L313.16,355.508L313.355,355.58L313.55,355.653L313.744,355.727L313.938,355.801L314.132,355.876L314.289,355.937L314.092,356.254L313.784,356.475L313.415,356.562L313.04,356.5L313.015,356.491L312.823,356.419L312.63,356.349L312.438,356.278L312.245,356.209L312.141,356.172L311.816,355.977L311.59,355.672L311.497,355.304ZM314.039,482.432L314.116,482.061L314.33,481.747L314.647,481.539L314.731,481.505L314.92,481.428L315.109,481.351L315.298,481.273L315.487,481.194L315.533,481.174L315.904,481.098L316.277,481.17L316.594,481.379L316.803,481.688L316.625,481.765L316.435,481.847L316.244,481.929L316.054,482.01L315.863,482.09L315.672,482.17L315.48,482.25L315.288,482.328L315.096,482.406L314.904,482.484L314.711,482.561L314.519,482.638L314.325,482.714L314.132,482.789L314.108,482.798L314.039,482.432ZM316.899,357.419L316.985,357.057L317.004,357.065L317.193,357.149L317.381,357.233L317.57,357.318L317.758,357.404L317.946,357.49L318.134,357.576L318.321,357.663L318.508,357.751L318.694,357.839L318.881,357.928L319.067,358.017L319.252,358.107L319.438,358.198L319.625,358.29L319.402,358.589L319.076,358.783L318.701,358.838L318.333,358.744L318.277,358.718L318.093,358.631L317.909,358.544L317.725,358.458L317.54,358.373L317.466,358.339L317.158,358.117L316.959,357.794L316.899,357.419ZM319.351,480.1L319.396,479.724L319.582,479.393L319.881,479.159L319.919,479.14L320.1,479.047L320.281,478.954L320.461,478.861L320.641,478.767L320.731,478.719L321.095,478.612L321.473,478.651L321.806,478.832L322.04,479.122L322,479.144L321.819,479.242L321.638,479.339L321.456,479.436L321.274,479.532L321.092,479.628L320.91,479.724L320.727,479.818L320.543,479.913L320.36,480.006L320.176,480.099L319.992,480.192L319.808,480.284L319.623,480.376L319.451,480.46L319.351,480.1ZM322.098,359.993L322.215,359.638L322.361,359.718L322.54,359.818L322.72,359.918L322.899,360.018L323.078,360.119L323.257,360.221L323.435,360.323L323.613,360.426L323.79,360.529L323.968,360.633L324.144,360.737L324.321,360.842L324.497,360.947L324.673,361.053L324.74,361.093L324.493,361.372L324.152,361.537L323.773,361.56L323.414,361.436L323.3,361.369L323.125,361.267L322.95,361.166L322.774,361.065L322.598,360.965L322.585,360.957L322.297,360.71L322.126,360.371L322.098,359.993ZM324.443,477.323L324.455,476.944L324.612,476.599L324.889,476.339L325.032,476.25L325.203,476.143L325.374,476.035L325.545,475.926L325.701,475.826L326.054,475.688L326.434,475.696L326.781,475.848L327.038,476.116L326.927,476.189L326.756,476.302L326.584,476.414L326.412,476.525L326.24,476.636L326.067,476.746L325.894,476.856L325.721,476.966L325.547,477.075L325.373,477.183L325.198,477.291L325.024,477.398L324.848,477.505L324.673,477.611L324.574,477.671L324.443,477.323ZM327.053,363.38L327.058,363L327.204,362.659L327.269,362.701L327.439,362.815L327.609,362.93L327.778,363.044L327.947,363.16L328.116,363.276L328.284,363.392L328.452,363.509L328.62,363.626L328.787,363.744L328.954,363.863L329.121,363.981L329.287,364.101L329.453,364.221L329.596,364.325L329.324,364.581L328.97,364.717L328.591,364.706L328.244,364.551L328.226,364.538L328.061,364.422L327.896,364.306L327.73,364.191L327.564,364.076L327.458,364.004L327.194,363.732L327.053,363.38ZM329.259,473.738L329.386,473.381L329.64,473.099L329.694,473.059L329.855,472.938L330.016,472.816L330.176,472.694L330.336,472.572L330.403,472.521L330.743,472.352L331.122,472.327L331.481,472.449L331.762,472.694L331.734,472.716L331.574,472.842L331.413,472.968L331.251,473.094L331.09,473.219L330.928,473.344L330.765,473.468L330.603,473.591L330.44,473.715L330.276,473.837L330.112,473.96L329.948,474.081L329.783,474.203L329.618,474.323L329.453,474.444L329.439,474.454L329.278,474.117L329.259,473.738ZM331.705,366.801L331.742,366.424L331.917,366.094L332.054,366.203L332.213,366.331L332.372,366.459L332.53,366.588L332.689,366.717L332.846,366.847L333.004,366.977L333.16,367.108L333.317,367.239L333.473,367.371L333.629,367.503L333.784,367.636L333.939,367.769L334.094,367.902L334.158,367.958L333.867,368.19L333.503,368.295L333.126,368.253L332.793,368.07L332.691,367.984L332.537,367.854L332.382,367.725L332.227,367.597L332.072,367.469L332.057,367.457L331.816,367.164L331.705,366.801ZM333.771,470.137L333.867,469.77L334.095,469.467L334.212,469.363L334.362,469.229L334.512,469.094L334.661,468.959L334.809,468.824L335.134,468.628L335.509,468.571L335.877,468.662L336.176,468.882L336.065,468.986L335.916,469.126L335.766,469.264L335.616,469.403L335.466,469.541L335.315,469.678L335.164,469.815L335.012,469.952L334.86,470.088L334.708,470.224L334.555,470.359L334.401,470.494L334.248,470.628L334.094,470.762L334.011,470.833L333.823,470.513L333.771,470.137ZM336.049,370.604L336.118,370.231L336.321,369.919L336.362,369.958L336.51,370.099L336.658,370.24L336.805,370.381L336.951,370.523L337.098,370.665L337.243,370.808L337.389,370.951L337.534,371.095L337.678,371.239L337.822,371.384L337.966,371.529L338.109,371.674L338.252,371.82L338.395,371.966L338.084,372.173L337.712,372.247L337.34,372.172L337.025,371.961L336.991,371.927L336.848,371.785L336.705,371.643L336.562,371.502L336.418,371.361L336.343,371.288L336.128,370.975L336.049,370.604ZM337.961,466.162L338.025,465.788L338.228,465.467L338.254,465.44L338.392,465.294L338.529,465.148L338.667,465L338.804,464.853L338.882,464.768L339.189,464.545L339.558,464.456L339.933,464.515L340.25,464.709L340.205,464.759L340.068,464.911L339.931,465.062L339.794,465.213L339.656,465.363L339.517,465.513L339.379,465.663L339.239,465.812L339.099,465.961L338.959,466.109L338.819,466.257L338.678,466.405L338.536,466.552L338.394,466.698L338.259,466.837L338.044,466.532L337.961,466.162ZM340.054,374.763L340.155,374.397L340.383,374.104L340.477,374.21L340.612,374.363L340.747,374.516L340.881,374.67L341.015,374.824L341.149,374.978L341.282,375.133L341.414,375.288L341.546,375.444L341.678,375.6L341.809,375.757L341.94,375.914L342.07,376.071L342.2,376.229L342.275,376.32L341.95,376.5L341.572,376.542L341.208,376.437L340.912,376.2L340.804,376.072L340.674,375.918L340.543,375.765L340.412,375.613L340.288,375.469L340.101,375.139L340.054,374.763ZM341.797,461.848L341.829,461.47L342.003,461.133L342.081,461.036L342.206,460.878L342.331,460.72L342.455,460.561L342.579,460.402L342.596,460.38L342.882,460.131L343.242,460.011L343.62,460.037L343.955,460.204L343.844,460.35L343.721,460.513L343.597,460.675L343.472,460.837L343.347,460.999L343.221,461.16L343.095,461.321L342.969,461.481L342.842,461.641L342.714,461.801L342.586,461.96L342.458,462.119L342.329,462.278L342.2,462.436L342.152,462.494L341.912,462.209L341.797,461.848ZM343.69,379.249L343.821,378.893L344.074,378.62L344.09,378.641L344.213,378.805L344.334,378.969L344.456,379.134L344.576,379.299L344.697,379.465L344.816,379.63L344.936,379.796L345.055,379.963L345.173,380.13L345.291,380.297L345.408,380.465L345.525,380.633L345.641,380.801L345.757,380.97L345.77,380.989L345.43,381.14L345.05,381.15L344.696,381.013L344.422,380.752L344.379,380.691L344.262,380.527L344.145,380.362L344.027,380.199L343.909,380.035L343.864,379.973L343.705,379.629L343.69,379.249ZM345.252,457.22L345.252,456.841L345.398,456.49L345.407,456.476L345.519,456.308L345.63,456.14L345.741,455.971L345.851,455.802L345.924,455.69L346.188,455.418L346.536,455.268L346.916,455.262L347.261,455.4L347.219,455.468L347.109,455.641L346.999,455.814L346.889,455.987L346.778,456.159L346.667,456.331L346.555,456.503L346.442,456.674L346.329,456.845L346.216,457.016L346.102,457.186L345.988,457.356L345.873,457.525L345.757,457.694L345.661,457.835L345.397,457.571L345.252,457.22ZM346.913,384.406L346.931,384.027L347.092,383.683L347.367,383.434L347.436,383.544L347.544,383.719L347.651,383.894L347.758,384.069L347.864,384.244L347.97,384.42L348.075,384.596L348.18,384.773L348.284,384.95L348.388,385.127L348.491,385.304L348.594,385.482L348.696,385.661L348.798,385.839L348.854,385.939L348.504,386.061L348.125,386.038L347.784,385.872L347.532,385.589L347.446,385.442L347.343,385.268L347.24,385.094L347.136,384.92L347.041,384.763L346.913,384.406ZM348.266,451.94L348.381,451.578L348.445,451.46L348.542,451.283L348.639,451.104L348.735,450.926L348.83,450.747L348.836,450.736L349.076,450.441L349.41,450.261L349.787,450.223L350.145,450.33L350.071,450.474L349.976,450.657L349.881,450.839L349.785,451.021L349.689,451.203L349.592,451.385L349.495,451.566L349.397,451.747L349.298,451.927L349.199,452.108L349.1,452.288L349,452.467L348.899,452.646L348.798,452.825L348.759,452.893L348.474,452.654L348.299,452.318L348.266,451.94ZM349.7,389.442L349.75,389.066L349.94,388.738L350.236,388.511L350.259,388.557L350.352,388.741L350.445,388.925L350.537,389.11L350.628,389.294L350.719,389.479L350.81,389.665L350.9,389.851L350.989,390.037L351.078,390.223L351.166,390.41L351.254,390.596L351.341,390.784L351.428,390.971L351.503,391.136L351.141,391.226L350.766,391.171L350.44,390.976L350.214,390.671L350.199,390.64L350.112,390.456L350.024,390.273L349.935,390.09L349.846,389.907L349.798,389.809L349.7,389.442ZM350.849,446.796L350.933,446.426L350.963,446.358L351.045,446.171L351.126,445.984L351.207,445.797L351.288,445.61L351.314,445.548L351.528,445.234L351.845,445.026L352.218,444.956L352.583,445.032L352.581,445.036L352.502,445.227L352.423,445.419L352.343,445.61L352.263,445.801L352.182,445.991L352.1,446.182L352.018,446.372L351.935,446.561L351.852,446.751L351.768,446.94L351.684,447.129L351.599,447.317L351.514,447.505L351.428,447.693L351.422,447.705L351.117,447.49L350.914,447.17L350.849,446.796ZM352.044,394.699L352.126,394.328L352.343,394.017L352.658,393.817L352.659,393.821L352.737,394.013L352.814,394.206L352.891,394.399L352.966,394.592L353.042,394.785L353.116,394.979L353.191,395.173L353.264,395.368L353.337,395.562L353.41,395.757L353.482,395.952L353.553,396.148L353.624,396.343L353.694,396.541L353.326,396.6L352.957,396.512L352.649,396.29L352.45,395.967L352.426,395.902L352.354,395.71L352.282,395.519L352.209,395.328L352.135,395.137L352.11,395.072L352.044,394.699ZM352.98,441.45L353.031,441.074L353.048,441.023L353.115,440.829L353.18,440.634L353.245,440.439L353.31,440.244L353.335,440.166L353.521,439.835L353.819,439.601L354.185,439.499L354.555,439.543L354.552,439.552L354.489,439.752L354.426,439.951L354.363,440.15L354.298,440.349L354.234,440.547L354.168,440.745L354.102,440.943L354.036,441.141L353.968,441.338L353.901,441.535L353.832,441.732L353.763,441.929L353.694,442.125L353.629,442.306L353.306,442.119L353.077,441.817L352.98,441.45ZM353.926,400.137L354.039,399.775L354.283,399.484L354.613,399.311L354.675,399.512L354.736,399.712L354.796,399.913L354.855,400.114L354.914,400.315L354.972,400.516L355.03,400.718L355.087,400.92L355.143,401.122L355.199,401.324L355.254,401.527L355.309,401.73L355.363,401.933L355.411,402.115L355.039,402.142L354.678,402.022L354.391,401.774L354.221,401.435L354.206,401.382L354.151,401.183L354.094,400.984L354.038,400.785L353.98,400.587L353.959,400.515L353.926,400.137ZM354.641,435.94L354.659,435.562L354.68,435.479L354.729,435.277L354.778,435.075L354.827,434.873L354.874,434.671L354.884,434.631L355.04,434.285L355.317,434.026L355.672,433.892L356.045,433.904L356.009,434.069L355.963,434.276L355.916,434.482L355.869,434.687L355.821,434.893L355.773,435.098L355.724,435.303L355.674,435.508L355.624,435.713L355.573,435.917L355.521,436.121L355.469,436.325L355.416,436.528L355.363,436.732L355.361,436.737L355.024,436.578L354.769,436.298L354.641,435.94ZM355.331,405.716L355.476,405.366L355.744,405.097L356.087,404.955L356.099,405.008L356.143,405.215L356.186,405.422L356.229,405.63L356.271,405.837L356.313,406.045L356.354,406.253L356.394,406.461L356.434,406.67L356.473,406.879L356.511,407.088L356.549,407.297L356.586,407.506L356.623,407.716L356.64,407.816L356.269,407.811L355.92,407.662L355.655,407.391L355.514,407.039L355.478,406.85L355.439,406.645L355.399,406.439L355.359,406.234L355.331,406.096L355.331,405.716ZM355.806,429.93L355.835,429.747L355.867,429.539L355.898,429.331L355.929,429.123L355.95,428.981L356.076,428.623L356.33,428.341L356.672,428.178L357.044,428.158L357.038,428.204L357.01,428.416L356.981,428.628L356.952,428.84L356.922,429.052L356.891,429.264L356.86,429.475L356.828,429.686L356.795,429.897L356.762,430.108L356.728,430.318L356.694,430.529L356.658,430.739L356.623,430.949L356.607,431.039L356.259,430.911L355.98,430.654L355.821,430.309L355.806,429.93ZM356.218,411.777L356.25,411.399L356.424,411.062L356.714,410.817L357.069,410.703L357.092,410.886L357.118,411.099L357.144,411.312L357.168,411.525L357.192,411.739L357.216,411.953L357.239,412.167L357.261,412.381L357.282,412.595L357.303,412.81L357.323,413.025L357.343,413.24L357.361,413.455L357.374,413.602L357.002,413.565L356.668,413.385L356.428,413.092L356.318,412.728L356.315,412.691L356.293,412.479L356.272,412.268L356.249,412.057L356.226,411.846L356.218,411.777ZM356.464,424.219L356.475,424.063L356.49,423.85L356.504,423.637L356.517,423.423L356.526,423.261L356.622,422.893L356.851,422.591L357.178,422.399L357.546,422.348L357.544,422.396L357.534,422.613L357.524,422.831L357.512,423.048L357.5,423.265L357.488,423.482L357.474,423.698L357.46,423.915L357.445,424.131L357.43,424.347L357.414,424.563L357.397,424.779L357.38,424.994L357.361,425.21L357.357,425.256L356.999,425.157L356.699,424.925L356.512,424.595L356.464,424.219ZM356.616,417.512L356.68,417.138L356.882,416.817L357.191,416.598L357.555,416.515L357.562,416.704L357.57,416.922L357.578,417.141L357.584,417.359L357.59,417.578L357.595,417.796L357.6,418.015L357.604,418.234L357.607,418.454L357.609,418.673L357.611,418.893L357.612,419.112L357.612,419.332L357.612,419.429L357.245,419.36L356.927,419.153L356.713,418.84L356.634,418.469L356.634,418.466L356.631,418.25L356.628,418.034L356.623,417.818L356.618,417.602L356.616,417.512Z" style="fill:white;"/>
        </g>
        <g transform="matrix(1.1992,0,0,1.1992,-102.64,61.289)">
            <path d="M638.566,139.793C639.028,143.919 639.265,148.113 639.265,152.362C639.265,214.128 589.119,264.274 527.353,264.274C465.586,264.274 415.44,214.128 415.44,152.362C415.44,90.595 465.586,40.449 527.353,40.449C531.601,40.449 535.795,40.686 539.921,41.149C502.076,49.021 473.603,82.59 473.603,122.757C473.603,168.761 510.953,206.111 556.957,206.111C597.124,206.111 630.694,177.639 638.566,139.793Z" style="fill:white;"/>
        </g>
        <g transform="matrix(1.1992,0,0,1.1992,-102.64,61.289)">
            <path d="M638.566,139.793C639.028,143.919 639.265,148.113 639.265,152.362C639.265,214.128 589.119,264.274 527.353,264.274C465.586,264.274 415.44,214.128 415.44,152.362C415.44,90.595 465.586,40.449 527.353,40.449C531.601,40.449 535.795,40.686 539.921,41.149C502.076,49.021 473.603,82.59 473.603,122.757C473.603,168.761 510.953,206.111 556.957,206.111C597.124,206.111 630.694,177.639 638.566,139.793Z" style="fill:white;"/>
        </g>
        <g transform="matrix(1.16817,0,0,1.13798,-75.782,77.0276)">
            <g transform="matrix(1.02657,0,0,1.0538,-16.5664,-16.1705)">
                <circle cx="388.019" cy="75.925" r="8.781" style="fill:none;stroke-width:2.38px;stroke:white;stroke-opacity:0.501961;"/>
            </g>
            <g transform="matrix(1.02657,0,0,1.0538,-21.165,-10.0192)">
                <circle cx="651.831" cy="136.333" r="3.872" style="fill:none;stroke-width:2.38px;stroke:white;stroke-opacity:0.501961;"/>
            </g>
            <g transform="matrix(1.02657,0,0,1.0538,-23.7265,-186.855)">
                <circle cx="407.2" cy="282.649" r="4.569" style="fill:none;stroke-width:2.38px;stroke:white;stroke-opacity:0.501961;"/>
            </g>
            <g transform="matrix(1.02657,0,0,1.0538,-85.1373,86.2717)">
                <circle cx="690.485" cy="141.348" r="8.887" style="fill:none;stroke-width:2.38px;stroke:white;stroke-opacity:0.501961;"/>
            </g>
        </g>
        <path d="M462.929,392.1C458.844,393.595 456.276,397.486 455.539,404.271C455.122,398.373 452.842,394.151 448.148,392.1C452.734,389.881 454.862,385.533 455.539,379.93C455.93,384.689 457.312,389.113 462.929,392.1Z" style="fill:white;fill-opacity:0.501961;"/>
        <g transform="matrix(0.811055,0,0,0.811055,45.2456,21.8276)">
            <path d="M462.929,392.1C458.844,393.595 456.276,397.486 455.539,404.271C455.122,398.373 452.842,394.151 448.148,392.1C452.734,389.881 454.862,385.533 455.539,379.93C455.93,384.689 457.312,389.113 462.929,392.1Z" style="fill:white;fill-opacity:0.501961;"/>
        </g>
        <g transform="matrix(0.685868,0,0,0.685868,100.91,-120.699)">
            <path d="M462.929,392.1C458.844,393.595 456.276,397.486 455.539,404.271C455.122,398.373 452.842,394.151 448.148,392.1C452.734,389.881 454.862,385.533 455.539,379.93C455.93,384.689 457.312,389.113 462.929,392.1Z" style="fill:white;fill-opacity:0.501961;"/>
        </g>
        <g transform="matrix(1.30556,0,0,1.30556,96.1796,-243.829)">
            <path d="M462.929,392.1C458.844,393.595 456.276,397.486 455.539,404.271C455.122,398.373 452.842,394.151 448.148,392.1C452.734,389.881 454.862,385.533 455.539,379.93C455.93,384.689 457.312,389.113 462.929,392.1Z" style="fill:white;fill-opacity:0.501961;"/>
        </g>
    </g>
</svg>
